<?xml version="1.0" encoding="UTF-8"?>
<svg width="433px" height="600px" viewBox="0 0 433 600" version="1.1" xmlns="http://www.w3.org/2000/svg" xmlns:xlink="http://www.w3.org/1999/xlink">
    <!-- Generator: Sketch 55.2 (78181) - https://sketchapp.com -->
    <title>Group 96</title>
    <desc>Created with Sketch.</desc>
    <defs>
        <path d="M408.079,5.131 C375.658,8.979 344.955,11.797 316.043,13.785 L316.043,13.785 C186.873,79.873 0.488,62.266 0.488,62.266 L0.488,62.266 L0.488,289.84 C0.488,289.84 140.842,282.687 168.151,275.535 L168.151,275.535 C348.47,228.308 397.025,109.081 406.128,82.422 L406.128,82.422 C411.44,66.866 417.416,38.24 422.507,0.431 L422.507,0.431 L408.079,5.131 Z" id="path-1"></path>
        <linearGradient x1="49.9998837%" y1="20.7860633%" x2="49.9998837%" y2="85.3026144%" id="linearGradient-3">
            <stop stop-color="#9C1608" offset="0%"></stop>
            <stop stop-color="#5F0E00" offset="100%"></stop>
        </linearGradient>
        <path d="M12.038,2.825 C-0.965,2.825 0.985,13.879 0.985,13.879 L0.985,13.879 L4.885,155.626091 C4.885,155.626091 25.612,155.788 60.236,152.13 L60.236,152.13 C94.858,148.473 93.315,121.408 93.315,121.408 L93.315,121.408 L93.315,11.929 C93.315,2.175 84.212,0.225 84.212,0.225 L84.212,0.225 C84.212,0.225 25.043,2.825 12.038,2.825 L12.038,2.825 Z M9.519,19.243 C9.519,19.243 8.288,12.144 17.322,11.929 L17.322,11.929 L78.767,10.466 C78.767,10.466 83.887,10.466 83.887,17.536 L83.887,17.536 C83.887,24.608 85.106,119.701 85.106,119.701 L85.106,119.701 C85.106,119.701 86.569,139.451 67.551,143.84 L67.551,143.84 C48.531,148.23 11.957,148.717 11.957,148.717 L11.957,148.717 L9.519,19.243 Z" id="path-4"></path>
        <linearGradient x1="49.9997538%" y1="30.5099937%" x2="49.9997538%" y2="111.028428%" id="linearGradient-6">
            <stop stop-color="#9C1608" offset="0%"></stop>
            <stop stop-color="#5F0E00" offset="100%"></stop>
        </linearGradient>
        <path d="M137.916,0.793 L137.917,197.969 C137.916,198.023 137.698,203.448 134.278,209.633 L134.278,209.633 C129.664,217.983 121.714,223.411 110.648,225.765 L110.648,225.765 C82.454,231.765 1.201,234.722 0.383,234.752 L0.383,234.752 L0.592,240.6 C3.95,240.479 83.174,237.595 111.866,231.488 L111.866,231.488 C142.522,224.964 143.757,198.431 143.768,198.066 L143.768,198.066 L143.768,0.793 L137.916,0.793 Z" id="path-7"></path>
        <linearGradient x1="0.000254350176%" y1="49.9998484%" x2="99.9996333%" y2="49.9998484%" id="linearGradient-9">
            <stop stop-color="#9C1608" offset="0%"></stop>
            <stop stop-color="#B0160C" offset="100%"></stop>
        </linearGradient>
        <path d="M8.322,1.929 C-0.712,2.144 0.519,9.243 0.519,9.243 L0.519,9.243 L2.957,138.717 C2.957,138.717 39.531,138.23 58.551,133.84 L58.551,133.84 C77.569,129.451 76.106,109.701 76.106,109.701 L76.106,109.701 C76.106,109.701 74.887,14.608 74.887,7.536 L74.887,7.536 C74.887,0.466 69.767,0.466 69.767,0.466 L69.767,0.466 L8.322,1.929 Z" id="path-10"></path>
        <radialGradient cx="49.9997125%" cy="49.9997732%" fx="49.9997125%" fy="49.9997732%" r="73.6383729%" gradientTransform="translate(0.499997,0.499998),scale(1.000000,0.547334),translate(-0.499997,-0.499998)" id="radialGradient-12">
            <stop stop-color="#200000" offset="0%"></stop>
            <stop stop-color="#4A0900" offset="100%"></stop>
        </radialGradient>
    </defs>
    <g id="Page-1" stroke="none" stroke-width="1" fill="none" fill-rule="evenodd">
        <g id="Group-96">
            <g id="Group-11" transform="translate(0.000000, 93.020000)">
                <path d="M290.3902,0.8848 C216.9162,-1.0662 136.2902,20.3908 136.2902,20.3908 C99.2282,14.5388 0.4882,15.1888 0.4882,15.1888 L0.4882,188.1638 C0.4882,188.1638 149.9452,222.7748 408.0782,192.1308 L422.5062,187.4308 C426.1392,160.4498 429.3202,128.7948 431.4862,93.8648 C436.6882,9.9878 363.8642,2.8358 290.3902,0.8848" id="Fill-1" fill="#65A9BA"></path>
                <path d="M316.043,200.7852 C344.955,198.7972 375.658,195.9792 408.079,192.1312 L422.506,187.4312 C426.139,160.4502 429.32,128.7942 431.486,93.8652 C431.918,86.9142 431.802,80.5012 431.205,74.5642 L430.187,67.2912 C430.171,67.2072 430.157,67.1222 430.141,67.0392 C413.855,131.0912 369.925,173.2172 316.043,200.7852" id="Fill-3" fill="#4E828F"></path>
                <path d="M359.8516,197.3834 L357.9036,197.2754 C358.4476,187.5704 358.0416,181.5704 357.9256,180.1654 L343.6436,164.7514 L345.0736,163.4254 L359.8046,179.3234 L359.8376,179.6474 C359.8646,179.9054 360.4836,186.0984 359.8516,197.3834" id="Fill-5" fill="#87B7D2"></path>
                <path d="M417.8184,217.2892 C418.6504,241.5922 418.9994,265.8762 419.029419,290.1742 C419.0324,314.4682 418.6804,338.7642 417.7684,363.0422 C416.8334,387.3152 415.4004,411.5842 412.7944,435.7422 C411.5074,447.8202 409.8684,459.8682 407.6514,471.8122 C405.3954,483.7342 402.6604,495.6362 398.1904,506.9392 C402.5464,495.5922 405.1564,483.6792 407.2914,471.7472 C409.3864,459.7942 410.9024,447.7452 412.0664,435.6672 C414.4274,411.5102 415.6164,387.2532 416.3054,362.9942 C416.9744,338.7312 417.0814,314.4562 416.8354,290.1862 C416.5614,265.9202 415.9674,241.6422 414.8954,217.4162 L417.8184,217.2892 Z" id="Fill-7" fill="#3C3C3B"></path>
                <path d="M408.0787,192.131 C149.9447,222.775 0.4877,188.164 0.4877,188.164 L0.4877,476.84 C0.4877,476.84 140.8417,469.688 168.1507,462.535 C348.4697,415.309 397.0247,296.081 406.1277,269.422 C411.4407,253.865 417.4157,225.24 422.5067,187.431 L408.0787,192.131 Z" id="Fill-9" fill="#DB3E43"></path>
            </g>
            <g id="Group-14" transform="translate(0.000000, 280.020000)">
                <mask id="mask-2" fill="white">
                    <use xlink:href="#path-1"></use>
                </mask>
                <g id="Clip-13"></g>
                <path d="M408.079,5.131 C375.658,8.979 344.955,11.797 316.043,13.785 L316.043,13.785 C186.873,79.873 0.488,62.266 0.488,62.266 L0.488,62.266 L0.488,289.84 C0.488,289.84 140.842,282.687 168.151,275.535 L168.151,275.535 C348.47,228.308 397.025,109.081 406.128,82.422 L406.128,82.422 C411.44,66.866 417.416,38.24 422.507,0.431 L422.507,0.431 L408.079,5.131 Z" id="Fill-12" fill="url(#linearGradient-3)" mask="url(#mask-2)"></path>
            </g>
            <g id="Group-59" transform="translate(0.000000, 93.020000)">
                <path d="M0.9752,15.6744 L0.9752,476.3264 C10.3092,475.8414 141.9062,468.9044 168.0272,462.0634 C343.1012,416.2114 394.1812,302.9004 405.6662,269.2654 C414.4572,243.5204 425.7002,179.2924 431.0002,93.8354 C432.6082,67.9114 426.9632,48.2894 413.7452,33.8464 C388.4712,6.2304 338.9412,2.6604 290.3772,1.3724 C217.8042,-0.5586 137.2222,20.6474 136.4152,20.8624 L136.3162,20.8884 L136.2142,20.8724 C100.9442,15.3024 8.5272,15.6394 0.9752,15.6744 L0.9752,15.6744 Z M0.0002,477.3524 L0.0002,14.7044 L0.4842,14.7014 C1.4722,14.6954 99.5092,14.1184 136.2652,19.8934 C139.5622,19.0284 218.8712,-1.4986 290.4032,0.3964 C339.1772,1.6924 388.9322,5.2904 414.4642,33.1884 C427.8712,47.8364 433.5982,67.6934 431.9732,93.8954 C426.6672,179.4434 415.4012,243.7744 406.5892,269.5804 C395.0642,303.3324 343.8182,417.0304 168.2742,463.0074 C141.2292,470.0904 1.9162,477.2554 0.5122,477.3264 L0.0002,477.3524 Z" id="Fill-15" fill="#1D1D1B"></path>
                <polygon id="Fill-17" fill="#1D1D1B" points="0.4879 273.9737 140.8419 270.0727 140.8419 402.0657 0.4879 411.1677"></polygon>
                <path d="M0.9752,274.4474 L0.9752,410.6484 L140.3542,401.6084 L140.3542,270.5734 L0.9752,274.4474 Z M0.0002,411.6884 L0.0002,273.4994 L141.3292,269.5714 L141.3292,402.5224 L0.0002,411.6884 Z" id="Fill-19" fill="#1D1D1B"></path>
                <path d="M162.9488,425.7169 L168.8008,308.9229 C168.8008,308.9229 175.1398,274.7859 220.9808,272.3479 C266.8208,269.9099 347.2838,259.6689 347.2838,259.6689 C347.2838,259.6689 322.9008,364.0289 281.9378,394.7499 C240.9738,425.4729 162.9488,425.7169 162.9488,425.7169" id="Fill-21" fill="#1D1D1B"></path>
                <path d="M346.6451,260.2423 C338.6191,261.2513 264.0761,270.5453 221.0061,272.8353 C208.0341,273.5253 190.0561,277.3863 178.0771,291.8603 C170.9251,300.5023 169.2961,308.9283 169.2801,309.0123 L163.4621,425.2233 C170.3041,425.1223 243.0121,423.3363 281.6451,394.3603 C320.2711,365.3913 344.4341,269.3233 346.6451,260.2423 L346.6451,260.2423 Z M162.4361,426.2073 L168.3131,308.8983 C168.3861,308.4883 175.2591,274.2923 220.9551,271.8613 C266.2521,269.4523 346.4181,259.2883 347.2231,259.1853 L347.9181,259.0963 L347.7591,259.7793 C347.5151,260.8253 322.8651,364.6643 282.2301,395.1413 C241.6081,425.6073 163.7321,426.2023 162.9501,426.2053 L162.4361,426.2073 Z" id="Fill-23" fill="#1D1D1B"></path>
                <path d="M162.9503,426.2052 L162.9483,425.2292 C163.7263,425.2262 241.2823,424.6332 281.6453,394.3602 C321.9973,364.0972 346.5663,260.6002 346.8093,259.5582 L347.7593,259.7792 C347.5143,260.8252 322.8653,364.6642 282.2303,395.1422 C241.6083,425.6072 163.7323,426.2022 162.9503,426.2052" id="Fill-25" fill="#DF1414"></path>
                <path d="M242.9249,387.9229 C217.3389,387.9229 196.5969,367.1819 196.5969,341.5959 C196.5969,316.0099 217.3389,295.2679 242.9249,295.2679 C268.5109,295.2679 289.2529,316.0099 289.2529,341.5959 C289.2529,367.1819 268.5109,387.9229 242.9249,387.9229 M242.9249,292.8299 C215.9919,292.8299 194.1589,314.6629 194.1589,341.5959 C194.1589,368.5279 215.9919,390.3609 242.9249,390.3609 C269.8579,390.3609 291.6909,368.5279 291.6909,341.5959 C291.6909,314.6629 269.8579,292.8299 242.9249,292.8299" id="Fill-27" fill="#3C3C3B"></path>
                <path d="M242.9249,377.9171 C222.8649,377.9171 206.6039,361.6551 206.6039,341.5961 C206.6039,321.5361 222.8649,305.2741 242.9249,305.2741 C262.9849,305.2741 279.2459,321.5361 279.2459,341.5961 C279.2459,361.6551 262.9849,377.9171 242.9249,377.9171 M242.9249,298.9981 C219.3989,298.9981 200.3269,318.0691 200.3269,341.5961 C200.3269,365.1221 219.3989,384.1931 242.9249,384.1931 C266.4509,384.1931 285.5229,365.1221 285.5229,341.5961 C285.5229,318.0691 266.4509,298.9981 242.9249,298.9981" id="Fill-29" fill="#3C3C3B"></path>
                <path d="M230.7335,341.5958 C230.7335,334.8628 236.1915,329.4048 242.9245,329.4048 C249.6585,329.4048 255.1165,334.8628 255.1165,341.5958 C255.1165,348.3288 249.6585,353.7868 242.9245,353.7868 C236.1915,353.7868 230.7335,348.3288 230.7335,341.5958" id="Fill-31" fill="#3C3C3B"></path>
                <path d="M215.2896,353.8282 C212.2136,348.5922 211.3186,342.0812 212.5526,336.0682 C213.2786,333.0782 214.4336,330.2262 215.9336,327.5972 C217.4206,324.9682 219.0666,322.4212 221.0916,320.1312 C223.1226,317.8552 225.5126,315.8692 228.1876,314.3262 C230.8856,312.8322 233.8006,311.7132 236.8356,311.0902 C238.3706,310.8902 239.8956,310.6112 241.4446,310.6492 C242.9856,310.5722 244.5276,310.6792 246.0466,310.9012 C249.0816,311.3632 252.0356,312.3002 254.6856,313.7562 L254.6136,313.9272 C251.7456,313.0482 248.8276,312.4892 245.9006,312.3532 C244.4396,312.2822 242.9776,312.2842 241.5296,312.4442 C240.0746,312.5062 238.6486,312.7852 237.2216,313.0292 C234.3956,313.6622 231.6276,314.5592 229.0176,315.8592 C226.4596,317.2452 224.0346,318.8902 221.8156,320.8422 C219.6326,322.8282 217.8026,325.2262 216.4666,327.8732 L215.5756,329.9092 C215.3406,330.6112 215.1446,331.3272 214.9296,332.0312 C214.6896,332.7272 214.5736,333.4592 214.4316,334.1792 C214.3016,334.9012 214.1176,335.6092 214.0706,336.3432 C213.9806,337.0682 213.9086,337.7942 213.7936,338.5132 L213.6706,340.6942 C213.6096,341.4222 213.5916,342.1512 213.6216,342.8812 C213.6326,343.6102 213.6626,344.3422 213.7276,345.0702 C213.9666,347.9862 214.5546,350.8892 215.4586,353.7532 L215.2896,353.8282 Z" id="Fill-33" fill="#FEFEFE"></path>
                <path d="M273.1387,341.5958 C273.2707,342.5828 273.3427,343.5868 273.3887,344.5958 C273.3667,345.5988 273.2637,346.6038 273.1687,347.6118 C273.0127,348.6088 272.7617,349.5908 272.5327,350.5768 C272.2527,351.5488 271.8547,352.4878 271.4647,353.4168 C271.0107,354.3228 270.4487,355.1728 269.9427,356.0368 C269.3687,356.8658 268.7527,357.6588 268.2177,358.4948 C267.6197,359.2918 267.0117,360.0768 266.4507,360.9028 C265.8107,361.6628 265.2107,362.4658 264.5827,363.2528 C263.8957,363.9808 263.2237,364.7408 262.5047,365.4528 C261.7337,366.1038 260.9517,366.7518 260.1427,367.3638 C259.2907,367.9098 258.4507,368.4858 257.5787,369.0098 C256.6757,369.4748 255.7637,369.9328 254.8297,370.3358 C251.0427,371.8218 246.8867,372.4028 242.9247,371.8098 L242.9247,371.6238 C246.8507,371.0178 250.5767,370.0478 254.0727,368.5088 C254.9477,368.1318 255.7867,367.6808 256.6667,367.3068 C257.5127,366.8678 258.3327,366.3768 259.1727,365.9138 C259.9687,365.3848 260.7457,364.8248 261.5597,364.3038 L263.8647,362.5358 C264.5577,361.8618 265.2977,361.2168 265.9637,360.5028 C266.5747,359.7438 267.1757,358.9708 267.7177,358.1608 C268.1927,357.3058 268.6437,356.4388 269.0327,355.5498 L270.0387,352.8258 C270.3077,351.9008 270.6477,351.0058 270.9617,350.1018 C271.2057,349.1758 271.5007,348.2608 271.7597,347.3328 C271.9497,346.3908 272.1817,345.4508 272.4067,344.5008 C272.5517,343.5408 272.7217,342.5758 272.9527,341.5958 L273.1387,341.5958 Z" id="Fill-35" fill="#FEFEFE"></path>
                <path d="M165.5499,170.6261 C165.5499,170.6261 160.3479,78.9101 158.3979,62.0041 C158.3979,62.0041 159.0479,49.0001 183.7559,46.3991 C208.4639,43.7981 319.9139,27.5751 387.2469,46.3991 C403.5279,50.9511 412.6309,75.0091 408.0789,84.7621 C403.5279,94.5151 372.9669,143.9311 344.3579,164.0881 C315.7489,184.2441 194.1589,188.1641 194.1589,188.1641 C194.1589,188.1641 166.6529,189.6451 165.5499,170.6261" id="Fill-37" fill="#1D1D1B"></path>
                <path d="M166.0367,170.5973 C166.4807,178.2563 171.3137,183.4573 180.4027,186.0573 C187.2587,188.0193 194.0657,187.6803 194.1327,187.6773 C194.4477,187.6663 224.9167,186.6573 258.4857,183.1983 C302.8507,178.6283 332.4487,171.8823 344.0777,163.6893 C372.9487,143.3483 403.5847,93.2383 407.6367,84.5553 C409.7557,80.0143 408.8507,72.1303 405.3297,64.4693 C401.1397,55.3483 394.5007,48.9343 387.1157,46.8693 C326.6247,29.9593 230.0757,41.4233 193.7277,45.7393 C189.5707,46.2343 186.2867,46.6233 183.8067,46.8843 C159.7917,49.4133 158.8907,61.9033 158.8847,62.0293 C160.8107,78.6713 165.9817,169.6363 166.0367,170.5973 M192.8487,188.6763 C190.4897,188.6763 185.3237,188.4803 180.1337,186.9953 C170.7387,184.3073 165.5267,178.6563 165.0627,170.6543 L165.0627,170.6533 C165.0107,169.7363 159.8397,78.7583 157.9127,62.0603 C157.9377,61.4323 158.8677,48.5293 183.7047,45.9143 C186.1787,45.6543 189.4587,45.2643 193.6127,44.7713 C230.0127,40.4493 326.7017,28.9663 387.3787,45.9293 C395.0397,48.0723 401.9057,54.6803 406.2157,64.0613 C409.8507,71.9723 410.7557,80.1783 408.5207,84.9683 C404.4507,93.6903 373.6647,144.0373 344.6397,164.4873 C332.7047,172.8943 303.7507,179.5173 258.5797,184.1703 C224.9777,187.6303 194.4787,188.6403 194.1747,188.6513 C194.1597,188.6523 193.6777,188.6763 192.8487,188.6763" id="Fill-39" fill="#1D1D1B"></path>
                <path d="M183.1055,175.1412 L179.8545,84.1122 C179.8545,84.1122 182.8105,66.5562 216.1185,64.6052 C249.4275,62.6552 349.9695,51.3222 376.2185,73.0582 C402.4665,94.7942 351.5105,137.4292 351.5105,137.4292 C351.5105,137.4292 328.7705,165.4602 285.5225,170.6262 C242.2745,175.7912 192.8585,185.5452 183.1055,175.1412" id="Fill-41" fill="#3C3C3B"></path>
                <path d="M183.586,174.9376 C191.42,182.8726 224.148,178.3886 258.785,173.6426 C267.591,172.4366 276.696,171.1886 285.465,170.1426 C328.004,165.0606 350.905,137.4006 351.131,137.1216 C351.518,136.7866 383.299,109.9416 383.244071,88.4396 C383.229,82.5016 380.76,77.4526 375.907,73.4336 C353.354,54.7576 275.039,60.6996 232.967,63.8946 C226.356,64.3956 220.647,64.8286 216.147,65.0926 C199.145,66.0886 190.31,71.2406 185.892,75.3876 C181.387,79.6156 180.44,83.6846 180.344,84.1506 L183.586,174.9376 Z M203.379,180.2186 C193.378,180.2186 185.982,178.9236 182.75,175.4746 L182.625,175.3416 L182.618,175.1586 L179.365,84.0796 L179.373,84.0316 C179.497,83.2986 182.777,66.0696 216.09,64.1196 C220.581,63.8556 226.287,63.4226 232.893,62.9216 C275.104,59.7166 353.671,53.7536 376.529,72.6826 C381.616,76.8946 384.203,82.1956 384.219079,88.4386 C384.243,97.6756 378.791,108.7956 368.013,121.4936 C360.017,130.9166 351.904,137.7356 351.823,137.8036 C351.66,138.0176 328.528,165.9796 285.581,171.1096 C276.82,172.1566 267.719,173.4036 258.918,174.6086 C238.102,177.4606 217.97,180.2186 203.379,180.2186 L203.379,180.2186 Z" id="Fill-43" fill="#FEFEFE"></path>
                <path d="M246.8262,73.775 C230.8352,73.775 217.8252,86.785 217.8252,102.775 C217.8252,118.767 230.8352,131.777 246.8262,131.777 C262.8182,131.777 275.8272,118.767 275.8272,102.775 C275.8272,86.785 262.8182,73.775 246.8262,73.775 M246.8262,132.753 C230.2972,132.753 216.8492,119.305 216.8492,102.775 C216.8492,86.247 230.2972,72.8 246.8262,72.8 C263.3552,72.8 276.8032,86.247 276.8032,102.775 C276.8032,119.305 263.3552,132.753 246.8262,132.753" id="Fill-45" fill="#FEFEFE"></path>
                <path d="M246.8262,79.5758 C234.0332,79.5758 223.6252,89.9828 223.6252,102.7758 C223.6252,115.5688 234.0332,125.9768 246.8262,125.9768 C259.6192,125.9768 270.0272,115.5688 270.0272,102.7758 C270.0272,89.9828 259.6192,79.5758 246.8262,79.5758 M246.8262,126.7578 C233.6032,126.7578 222.8452,115.9998 222.8452,102.7758 C222.8452,89.5528 233.6032,78.7948 246.8262,78.7948 C260.0492,78.7948 270.8072,89.5528 270.8072,102.7758 C270.8072,115.9998 260.0492,126.7578 246.8262,126.7578" id="Fill-47" fill="#FEFEFE"></path>
                <path d="M327.4527,67.4049 C307.9487,67.4049 292.0807,83.2719 292.0807,102.7759 C292.0807,122.2799 307.9487,138.1469 327.4527,138.1469 C346.9567,138.1469 362.8237,122.2799 362.8237,102.7759 C362.8237,83.2719 346.9567,67.4049 327.4527,67.4049 M327.4527,138.9279 C307.5187,138.9279 291.3007,122.7099 291.3007,102.7759 C291.3007,82.8419 307.5187,66.6239 327.4527,66.6239 C347.3867,66.6239 363.6037,82.8419 363.6037,102.7759 C363.6037,122.7099 347.3867,138.9279 327.4527,138.9279" id="Fill-49" fill="#FEFEFE"></path>
                <path d="M296.0372,102.776 C296.0372,85.426 310.1022,71.361 327.4532,71.361 C344.8032,71.361 358.8682,85.426 358.8682,102.776 C358.8682,120.126 344.8032,134.191 327.4532,134.191 C310.1022,134.191 296.0372,120.126 296.0372,102.776" id="Fill-51" fill="#A94C0D"></path>
                <path d="M327.4527,71.7037 C310.3187,71.7037 296.3797,85.6427 296.3797,102.7757 C296.3797,119.9097 310.3187,133.8487 327.4527,133.8487 C344.5867,133.8487 358.5247,119.9097 358.5247,102.7757 C358.5247,85.6427 344.5867,71.7037 327.4527,71.7037 M327.4527,134.5347 C309.9407,134.5347 295.6947,120.2877 295.6947,102.7757 C295.6947,85.2647 309.9407,71.0177 327.4527,71.0177 C344.9637,71.0177 359.2107,85.2647 359.2107,102.7757 C359.2107,120.2877 344.9637,134.5347 327.4527,134.5347" id="Fill-53" fill="#FEFEFE"></path>
                <path d="M316.3458,102.776 C316.3458,96.642 321.3188,91.669 327.4528,91.669 C333.5868,91.669 338.5598,96.642 338.5598,102.776 C338.5598,108.91 333.5868,113.883 327.4528,113.883 C321.3188,113.883 316.3458,108.91 316.3458,102.776" id="Fill-55" fill="#833C05"></path>
                <path d="M140.8419,402.0655 C140.8419,402.0655 139.8659,427.4775 111.2569,432.6265 C82.6479,437.7745 0.4879,441.6755 0.4879,441.6755 L0.4879,411.1685 L140.8419,402.0655 Z" id="Fill-57" fill="#8A1403"></path>
            </g>
            <g id="Group-62" transform="translate(42.000000, 370.020000)">
                <mask id="mask-5" fill="white">
                    <use xlink:href="#path-4"></use>
                </mask>
                <g id="Clip-61"></g>
                <path d="M12.038,2.825 C-0.965,2.825 0.985,13.879 0.985,13.879 L0.985,13.879 L4.885,155.626091 C4.885,155.626091 25.612,155.788 60.236,152.13 L60.236,152.13 C94.858,148.473 93.315,121.408 93.315,121.408 L93.315,121.408 L93.315,11.929 C93.315,2.175 84.212,0.225 84.212,0.225 L84.212,0.225 C84.212,0.225 25.043,2.825 12.038,2.825 L12.038,2.825 Z M9.519,19.243 C9.519,19.243 8.288,12.144 17.322,11.929 L17.322,11.929 L78.767,10.466 C78.767,10.466 83.887,10.466 83.887,17.536 L83.887,17.536 C83.887,24.608 85.106,119.701 85.106,119.701 L85.106,119.701 C85.106,119.701 86.569,139.451 67.551,143.84 L67.551,143.84 C48.531,148.23 11.957,148.717 11.957,148.717 L11.957,148.717 L9.519,19.243 Z" id="Fill-60" fill="url(#linearGradient-6)" mask="url(#mask-5)"></path>
            </g>
            <g id="Group-65" transform="translate(0.000000, 297.020000)">
                <mask id="mask-8" fill="white">
                    <use xlink:href="#path-7"></use>
                </mask>
                <g id="Clip-64"></g>
                <path d="M137.916,0.793 L137.917,197.969 C137.916,198.023 137.698,203.448 134.278,209.633 L134.278,209.633 C129.664,217.983 121.714,223.411 110.648,225.765 L110.648,225.765 C82.454,231.765 1.201,234.722 0.383,234.752 L0.383,234.752 L0.592,240.6 C3.95,240.479 83.174,237.595 111.866,231.488 L111.866,231.488 C142.522,224.964 143.757,198.431 143.768,198.066 L143.768,198.066 L143.768,0.793 L137.916,0.793 Z" id="Fill-63" fill="url(#linearGradient-9)" mask="url(#mask-8)"></path>
            </g>
            <g id="Group-68" transform="translate(51.000000, 380.020000)">
                <mask id="mask-11" fill="white">
                    <use xlink:href="#path-10"></use>
                </mask>
                <g id="Clip-67"></g>
                <path d="M8.322,1.929 C-0.712,2.144 0.519,9.243 0.519,9.243 L0.519,9.243 L2.957,138.717 C2.957,138.717 39.531,138.23 58.551,133.84 L58.551,133.84 C77.569,129.451 76.106,109.701 76.106,109.701 L76.106,109.701 C76.106,109.701 74.887,14.608 74.887,7.536 L74.887,7.536 C74.887,0.466 69.767,0.466 69.767,0.466 L69.767,0.466 L8.322,1.929 Z" id="Fill-66" fill="url(#radialGradient-12)" mask="url(#mask-11)"></path>
            </g>
            <g id="Group-95" transform="translate(0.000000, 0.020000)">
                <path d="M54.92,463.5304 C54.92,444.6514 70.224,429.3464 89.103,429.3464 C107.982,429.3464 123.286,444.6514 123.286,463.5304 C123.286,482.4084 107.982,497.7134 89.103,497.7134 C70.224,497.7134 54.92,482.4084 54.92,463.5304" id="Fill-69" fill="#1D1D1B"></path>
                <polygon id="Fill-71" fill="#1D1D1B" points="161.772 556.9786 160.797 556.9366 162.462 518.6966 163.436 518.7386"></polygon>
                <path d="M0.4249,0.6021 C10.1779,0.1031 19.8989,0.0001 29.6339,0.0711 C39.3649,0.1521 49.0929,0.4581 58.8089,0.9991 C68.5239,1.5411 78.2249,2.3131 87.9009,3.3361 C97.5729,4.3951 107.2159,5.7191 116.8099,7.3361 C135.9699,10.6571 154.9899,15.1751 173.2209,22.0061 C175.4849,22.8941 177.7799,23.7041 180.0179,24.6581 L186.7089,27.5661 C191.0889,29.6781 195.4919,31.7551 199.6789,34.2351 C208.1179,39.0521 216.1389,44.6591 223.2359,51.3141 C216.0829,44.7191 208.0249,39.1851 199.5599,34.4471 C195.3599,32.0061 190.9449,29.9701 186.5579,27.8991 L179.8559,25.0531 C177.6159,24.1201 175.3179,23.3311 173.0519,22.4631 C154.8049,15.7991 135.7919,11.4511 116.6489,8.2981 C107.0639,6.7651 97.4339,5.5241 87.7759,4.5491 C78.1139,3.6091 68.4289,2.9201 58.7339,2.4601 C49.0379,2.0021 39.3319,1.7771 29.6279,1.7781 C19.9279,1.7881 10.2059,1.9741 0.5499,2.5491 L0.4249,0.6021 Z" id="Fill-73" fill="#52849A"></path>
                <polygon id="Fill-75" fill="#52849A" points="138.891 297.793 142.792 297.793 142.792 238.232 138.891 238.232"></polygon>
                <path d="M0.4879,224.7584 C0.4879,224.7584 81.0219,229.0224 116.1339,224.7584 C116.1339,224.7584 75.9379,235.1244 42.8809,251.7054 L0.4879,251.7054 L0.4879,224.7584 Z" id="Fill-77" fill="#FEFEFE"></path>
                <path d="M65.6627,110.2784 L65.6627,119.0504 C65.6627,119.0504 88.0827,115.1494 111.8617,119.0504 L102.4787,165.7944 L116.1337,165.7944 C116.1337,165.7944 114.8327,154.5394 123.2867,154.3514 L131.7387,154.1624 L135.3257,131.8584 L116.1337,131.8584 L119.8137,112.9214 L65.6627,110.2784 Z" id="Fill-78" fill="#FEFEFE"></path>
                <path d="M1.046,145.3843 C1.046,145.3843 88.756,155.5153 100.494,154.3513 L100.494,165.7943 L1.046,155.5893 L1.046,145.3843 Z" id="Fill-79" fill="#FEFEFE"></path>
                <path d="M296.0372,132.8565 C302.1192,132.0265 308.2232,131.7035 314.3242,131.5805 C320.4272,131.4445 326.5322,131.5615 332.6282,131.9275 C338.7232,132.3115 344.8152,132.8535 350.8622,133.8365 C356.9032,134.7905 362.9372,136.0255 368.7412,138.0365 L350.5362,136.8635 L332.3972,135.8205 C326.3512,135.4425 320.2982,135.0965 314.2412,134.6115 C308.1822,134.1625 302.1202,133.6405 296.0372,132.8565" id="Fill-80" fill="#FEFEFE"></path>
                <path d="M296.0372,138.1036 C302.1192,137.7036 308.2132,137.5506 314.3042,137.5856 C320.3952,137.6046 326.4862,137.7946 332.5712,138.1476 C338.6522,138.5466 344.7332,139.0126 350.7802,139.8406 C356.8262,140.6366 362.8532,141.6976 368.7412,143.2836 C362.7042,142.4416 356.6612,141.8936 350.6182,141.3536 L346.0822,140.9856 L341.5412,140.6726 C338.5152,140.4556 335.4862,140.2586 332.4552,140.0946 C326.3972,139.7036 320.3302,139.4306 314.2622,139.1016 C308.1922,138.8106 302.1202,138.4576 296.0372,138.1036" id="Fill-81" fill="#FEFEFE"></path>
                <path d="M168.4756,227.1915 C167.9126,221.2295 167.4396,215.2615 166.9706,209.2955 L165.6376,191.3905 L164.3916,173.4815 C164.1876,170.4965 163.9836,167.5115 163.7386,164.5305 C163.5396,161.5435 163.2716,158.5665 162.9486,155.5895 C163.9896,161.4915 164.5476,167.4635 165.1396,173.4205 C165.7106,179.3805 166.1426,185.3525 166.6096,191.3215 C166.9966,197.2955 167.4026,203.2675 167.7156,209.2465 C168.0296,215.2245 168.3136,221.2045 168.4756,227.1915" id="Fill-82" fill="#FEFEFE"></path>
                <path d="M1.3629,332.547 C6.2379,333.592 11.3119,334.36 16.3409,335.014 C21.3819,335.689 26.4489,336.194 31.5209,336.663 C41.6719,337.551 51.8629,338.042 62.0609,338.314 L69.7119,338.475 L77.3659,338.499 C82.4699,338.555 87.5719,338.396 92.6769,338.332 C97.7809,338.231 102.8819,337.993 107.9869,337.83 L123.2859,337.012 L108.0069,338.195 C102.9059,338.48 97.8079,338.839 92.7029,339.063 C87.5959,339.25 82.4909,339.53 77.3789,339.596 L69.7119,339.755 L62.0409,339.777 C51.8129,339.748 41.5789,339.5 31.3559,338.851 C26.2469,338.502 21.1369,338.115 16.0369,337.556 C10.9239,337.012 5.8689,336.378 0.7299,335.403 L1.3629,332.547 Z" id="Fill-83" fill="#FEFEFE"></path>
                <polygon id="Fill-84" fill="#52849A" points="138.8922 238.3018 134.3922 113.8888 138.2902 113.7478 142.7902 238.1608"></polygon>
                <polygon id="Fill-85" fill="#1D1D1B" points="164.0699 238.7193 140.3719 238.7193 135.8029 113.4083 136.7779 113.3723 141.3119 237.7433 164.0699 237.7433"></polygon>
                <path d="M398.3204,159.9478 C399.1634,160.7928 399.7044,161.8388 400.1084,162.9138 C400.5364,163.9928 400.7404,165.1258 400.8864,166.2648 C401.1664,168.5618 400.5164,170.8088 399.9444,172.9488 C399.4024,175.1178 398.5224,177.1598 397.5864,179.1398 C397.0904,180.1178 396.5294,181.0608 396.0084,182.0138 C395.4264,182.9358 394.8284,183.8438 394.2264,184.7408 L393.9724,184.5968 C394.3724,183.5928 394.7824,182.6008 395.1984,181.6188 C395.5414,180.6038 395.9204,179.6078 396.2284,178.5938 C396.5034,177.5688 396.8634,176.5758 397.0524,175.5398 L397.4064,174.0108 L397.6534,172.4688 C397.9474,170.4028 397.8044,168.3518 397.9624,166.3458 C398.0764,164.3208 398.1394,162.3058 398.0594,160.0808 L398.3204,159.9478 Z" id="Fill-86" fill="#FEFEFE"></path>
                <path d="M332.043,248.5816 C275.089,238.3116 183.019,240.4636 182.097,240.4856 L182,236.5866 C182.928,236.5626 275.394,234.4026 332.735,244.7436 L332.043,248.5816 Z" id="Fill-87" fill="#1D1D1B"></path>
                <path d="M348.2178,352.9503 L346.3498,352.3883 C354.5508,325.1513 357.1588,303.5763 357.9038,290.2753 L359.8518,290.3833 C359.1008,303.7913 356.4738,325.5293 348.2178,352.9503" id="Fill-88" fill="#AB160B"></path>
                <path d="M201.9009,299.7022 C164.4339,299.7022 132.7019,298.3402 107.3479,296.5842 C38.3609,291.8072 0.4229,283.1502 0.0469,283.0632 L0.9279,279.2632 C1.2999,279.3492 39.0239,287.9502 107.7449,292.7022 C171.1379,297.0862 274.6229,298.9962 407.6579,283.2162 L421.9019,278.5772 L423.1099,282.2852 L408.3089,287.0682 C328.0199,296.5992 258.4389,299.7022 201.9009,299.7022" id="Fill-89" fill="#1D1D1B"></path>
                <path d="M255.1163,310.3526 C259.2883,308.9006 263.2883,307.1766 267.2943,305.4556 C271.2843,303.7036 275.2603,301.9276 279.1973,300.0536 L291.0653,294.5086 C293.0353,293.5576 295.0303,292.6476 297.0333,291.7456 C299.0333,290.8366 301.0313,289.9176 303.1013,289.1116 C301.3593,290.4796 299.5443,291.7346 297.7333,293.0006 C295.8853,294.2026 294.0273,295.3946 292.1343,296.5266 C288.3263,298.7506 284.4493,300.8696 280.4283,302.7056 C278.4233,303.6296 276.3873,304.4946 274.3453,305.3406 C272.2723,306.1156 270.2173,306.9326 268.0973,307.5836 C263.8873,308.9236 259.5573,310.0836 255.1163,310.3526" id="Fill-90" fill="#FEFEFE"></path>
                <path d="M183.586,267.9376 C191.42,275.8726 224.148,271.3886 258.785,266.6426 C267.591,265.4366 276.696,264.1886 285.465,263.1426 C328.004,258.0606 350.905,230.4006 351.131,230.1216 C351.518,229.7866 383.299,202.9416 383.244071,181.4396 C383.229,175.5016 380.76,170.4526 375.907,166.4336 C353.354,147.7576 275.039,153.6996 232.967,156.8946 C226.356,157.3956 220.647,157.8286 216.147,158.0926 C199.145,159.0886 190.31,164.2406 185.892,168.3876 C181.387,172.6156 180.44,176.6846 180.344,177.1506 L183.586,267.9376 Z M203.379,273.2186 C193.378,273.2186 185.982,271.9236 182.75,268.4746 L182.625,268.3416 L182.618,268.1586 L179.365,177.0796 L179.373,177.0316 C179.497,176.2986 182.777,159.0696 216.09,157.1196 C220.581,156.8556 226.287,156.4226 232.893,155.9216 C275.104,152.7166 353.671,146.7536 376.529,165.6826 C381.616,169.8946 384.203,175.1956 384.219079,181.4386 C384.243,190.6756 378.791,201.7956 368.013,214.4936 C360.017,223.9166 351.904,230.7356 351.823,230.8036 C351.66,231.0176 328.528,258.9796 285.581,264.1096 C276.82,265.1566 267.719,266.4036 258.918,267.6086 C238.102,270.4606 217.97,273.2186 203.379,273.2186 L203.379,273.2186 Z" id="Fill-91" fill="#FEFEFE"></path>
                <path d="M144.0928,199.817 C144.0928,199.817 142.1418,137.397 147.3438,117.89 C147.3438,117.89 217.5668,101.635 266.3328,100.984 C266.3328,100.984 156.5128,130.587 150.1798,145.384 L144.0928,199.817 Z" id="Fill-92" fill="#FEFEFE"></path>
                <path d="M413.5826,332.0387 L413.4226,331.7697 C388.8426,346.4217 347.5666,352.1467 347.1536,352.2027 L347.4156,354.1357 C347.8246,354.0807 387.9586,348.5157 413.0116,334.2647 L413.5826,332.0387 Z" id="Fill-93" fill="#DF1414"></path>
                <path d="M220.9869,365.836 L220.9739,364.86 C247.9439,364.511 346.2339,352.309 347.2239,352.186 C347.6339,352.13 389.0049,346.393 413.6729,331.689 L414.1719,332.527 C389.3319,347.333 347.7669,353.096 347.3489,353.152 C346.3539,353.277 248.0099,365.485 220.9869,365.836" id="Fill-94" fill="#1D1D1B"></path>
            </g>
        </g>
    </g>
</svg>